<svg width="59" height="40" viewBox="0 0 59 40" fill="none" xmlns="http://www.w3.org/2000/svg">
<g filter="url(#filter0_i_39_534)">
<path fill-rule="evenodd" clip-rule="evenodd" d="M37.7806 0C35.5892 0 33.8128 1.78311 33.8128 3.98269C33.8128 6.18228 35.5892 7.96539 37.7806 7.96539H45.4849L30.8276 23.2326L23.5072 15.8849C22.7557 15.1306 21.7341 14.7104 20.6713 14.7185C19.6085 14.7266 18.5934 15.1624 17.8534 15.9281L1.11928 33.2442C-0.406496 34.823 -0.368242 37.3444 1.20473 38.8759C2.7777 40.4074 5.28973 40.369 6.81551 38.7901L20.7446 24.3767L28.0743 31.7338C28.8274 32.4897 29.8517 32.91 30.9167 32.9001C31.9818 32.8902 32.9981 32.451 33.7372 31.6811L51.0644 13.6329V20.9524C51.0644 23.152 52.8409 24.9351 55.0323 24.9351C57.2237 24.9351 59.0002 23.152 59.0002 20.9524V3.98269C59.0002 1.78311 57.2237 0 55.0323 0L37.7806 0Z" fill="url(#paint0_linear_39_534)"/>
</g>
<defs>
<filter id="filter0_i_39_534" x="-0.000488281" y="-12.8356" width="59.0007" height="52.8356" filterUnits="userSpaceOnUse" color-interpolation-filters="sRGB">
<feFlood flood-opacity="0" result="BackgroundImageFix"/>
<feBlend mode="normal" in="SourceGraphic" in2="BackgroundImageFix" result="shape"/>
<feColorMatrix in="SourceAlpha" type="matrix" values="0 0 0 0 0 0 0 0 0 0 0 0 0 0 0 0 0 0 127 0" result="hardAlpha"/>
<feOffset dy="-18.3366"/>
<feGaussianBlur stdDeviation="6.4178"/>
<feComposite in2="hardAlpha" operator="arithmetic" k2="-1" k3="1"/>
<feColorMatrix type="matrix" values="0 0 0 0 0 0 0 0 0 0 0 0 0 0 0 0 0 0 0.2 0"/>
<feBlend mode="normal" in2="shape" result="effect1_innerShadow_39_534"/>
</filter>
<linearGradient id="paint0_linear_39_534" x1="29.4999" y1="0" x2="29.4999" y2="39.9999" gradientUnits="userSpaceOnUse">
<stop stop-color="#E75C5C"/>
<stop offset="1" stop-color="#E13600"/>
</linearGradient>
</defs>
</svg>
