<svg width="48" height="48" viewBox="0 0 48 48" fill="none" xmlns="http://www.w3.org/2000/svg">
<path d="M24 0C10.7464 0 0 10.7464 0 24C0 37.2536 10.7464 48 24 48C37.2536 48 48 37.2536 48 24C48 10.7464 37.2536 0 24 0ZM37.7143 13.5911L35.5286 15.6857C35.3357 15.8304 35.2446 16.0661 35.2821 16.2964V31.7089C35.2446 31.9446 35.3357 32.1804 35.5286 32.3196L37.6714 34.4143V34.8804H26.9143V34.4357L29.1268 32.2875C29.3464 32.0679 29.3464 32.0036 29.3464 31.6768V19.2054L23.1857 34.8268H22.3554L15.1875 19.2054V29.6786C15.1232 30.1179 15.2786 30.5625 15.5893 30.8786L18.4714 34.3661V34.8321H10.2857V34.3661L13.1679 30.8786C13.3197 30.7217 13.4327 30.5315 13.4978 30.3231C13.563 30.1147 13.5784 29.894 13.5429 29.6786V17.5714C13.5804 17.2339 13.4518 16.9071 13.1946 16.6768L10.6339 13.5911V13.125H18.5893L24.7286 26.5982L30.1339 13.1357H37.7143V13.5911Z" fill="white"/>
</svg>
