<svg width="35" height="35" viewBox="0 0 35 35" fill="none" xmlns="http://www.w3.org/2000/svg">
<path d="M33.0283 0H23.1691C22.0801 0 21.1973 0.88282 21.1973 1.97183V11.831C21.1973 12.92 22.0801 13.8028 23.1691 13.8028H33.0283C34.1173 13.8028 35.0001 12.92 35.0001 11.831V1.97183C35.0001 0.88282 34.1173 0 33.0283 0Z" fill="white"/>
<path d="M11.831 21.1968H1.97183C0.88282 21.1968 0 22.0796 0 23.1686V33.0278C0 34.1168 0.88282 34.9996 1.97183 34.9996H11.831C12.92 34.9996 13.8028 34.1168 13.8028 33.0278V23.1686C13.8028 22.0796 12.92 21.1968 11.831 21.1968Z" fill="white"/>
<path d="M6.90142 13.8028C7.80773 13.8028 8.70516 13.6243 9.54248 13.2775C10.3798 12.9307 11.1406 12.4223 11.7815 11.7815C12.4223 11.1406 12.9307 10.3798 13.2775 9.54248C13.6243 8.70516 13.8028 7.80773 13.8028 6.90142C13.8028 5.99511 13.6243 5.09768 13.2775 4.26036C12.9307 3.42304 12.4223 2.66224 11.7815 2.02138C11.1406 1.38052 10.3798 0.872168 9.54248 0.525339C8.70516 0.17851 7.80773 -1.9099e-08 6.90142 0C5.07105 3.85722e-08 3.31565 0.727112 2.02138 2.02138C0.727112 3.31565 0 5.07105 0 6.90142C0 8.73179 0.727112 10.4872 2.02138 11.7815C3.31565 13.0757 5.07105 13.8028 6.90142 13.8028Z" fill="white"/>
<path d="M35.0001 33.0283L28.0987 21.1973L21.1973 33.0283C21.1973 34.1173 22.0801 35.0001 23.1691 35.0001H33.0283C34.1173 35.0001 35.0001 34.1173 35.0001 33.0283Z" fill="white"/>
</svg>
