<svg viewBox="0 0 924 950" fill="none" xmlns="http://www.w3.org/2000/svg">
<path fill-rule="evenodd" clip-rule="evenodd" d="M788.028 107.964C764.807 133.108 741.481 158.193 717.902 183.68C749.033 208.705 767.26 242.736 788.95 274.271C805.378 298.093 823.382 320.86 840.464 344.251C844.061 349.125 847.748 349.407 853.294 347.624C874.404 340.758 895.634 334.353 916.879 327.963C918.975 327.324 921.517 328.141 923.822 328.305L924 331.128C921.651 331.99 919.272 332.971 916.909 333.714C895.218 340.491 873.587 347.475 851.718 353.821C845.295 355.693 842.485 358.636 841.088 365.219C829.447 421.616 835.453 477.062 848.09 532.567C851.718 548.587 857.441 558.112 875.653 559.093C888.201 559.717 900.54 563.774 912.939 566.316C913.177 567.163 913.4 568.01 913.578 568.886C911.542 569.585 909.312 571.071 907.453 570.729C892.089 567.967 876.774 564.94 861.515 561.649C855.94 560.445 851.554 561.233 846.827 564.592C814.447 587.656 791.745 618.299 774.44 652.909C762.889 675.944 753.3 699.87 742.819 723.364C741.362 726.664 739.652 729.859 737.734 733.871C760.941 754.736 784.624 776.016 808.351 797.297C805.616 803.539 802.984 800.76 800.041 798.144C782.037 782.02 763.974 766 746.03 749.876C730.955 736.383 731.014 736.353 712.817 745.953C688.109 759.016 663.192 771.647 638.796 785.2C618.057 796.658 599.979 811.296 585.082 829.694C581.975 833.557 581.217 836.693 583.045 841.567C592.679 866.831 601.926 892.228 611.262 917.565C611.441 918.056 611.783 918.517 611.842 919.052C612.08 922.217 612.244 925.457 612.422 928.652C610.356 926.2 607.516 924.089 606.475 921.31C596.702 896.108 587.276 870.773 578.199 845.312C576.073 839.338 573.203 837.525 566.9 837.599C524.976 837.971 484.404 846.858 443.788 855.863C421.354 860.842 398.891 866.117 376.471 871.036C371.907 872.002 369.96 874.053 368.919 878.467C363.894 899.703 358.527 920.805 353.279 941.952C352.581 944.672 351.837 947.376 351.198 949.947C344.389 950.482 345.95 946.856 346.812 943.453C352.521 920.285 358.468 897.176 363.597 873.83C364.816 868.48 364.474 861.897 362.437 856.8C343.913 809.958 306.999 786.478 257.775 779.271C239.95 776.67 222.006 775.006 204.18 772.583C199.393 771.885 196.45 773.222 193.283 776.67C172.181 799.605 150.951 822.421 129.594 845.119C127.914 846.813 125.089 847.482 122.844 848.626C122.264 847.749 121.625 846.902 121.045 846.026C145.338 819.781 169.675 793.552 194.666 766.535C189.656 760.754 184.913 754.973 179.799 749.534C162.494 731.642 144.728 714.225 127.765 695.976C101.287 667.488 92.4565 652.151 73.546 605.266C70.0225 606.276 66.3356 607.242 62.7081 608.386C44.5409 614.034 26.3588 619.785 8.1916 625.253C5.88724 625.982 3.06256 625.194 0.520338 625.075C2.60169 623.381 4.44517 620.959 6.80898 620.156C26.4183 613.751 46.0424 607.465 65.8301 601.58C71.3159 599.975 73.8581 597.077 75.2854 591.727C85.4394 554.412 83.477 517.126 75.0624 480.019C69.4725 455.454 62.5445 431.231 55.6761 407.008C54.9327 404.481 51.0079 401.673 48.0346 401.019C32.3798 397.378 16.5021 394.45 0.698738 391.27L0 388.729C2.02188 388.075 4.2073 386.589 6.06565 386.886C17.5428 388.848 29.0199 390.75 40.3336 393.574C47.3804 395.357 51.8107 394.034 57.1182 388.669C85.6178 359.691 107.829 326.908 122.428 289.28C133.742 260.183 139.911 230.03 141.755 199.06C141.918 195.538 139.956 190.991 137.429 188.39C121.045 171.464 104.201 154.939 87.2829 138.042C89.1858 133.688 91.5496 135.531 94.4338 138.324C110.416 153.869 126.397 169.443 142.602 184.72C144.565 186.563 148.147 188.361 150.556 187.915C206.514 177.453 258.622 158.297 302.39 121.249C309.601 115.171 315.949 108.097 322.817 101.678C326.564 98.215 327.025 94.6633 325.582 89.8336C317.971 63.6785 310.716 37.3898 303.312 11.1456C302.97 9.92702 302.331 8.63413 302.39 7.40068C302.465 4.91893 302.866 2.46689 303.148 0C304.695 1.84274 307.133 3.46257 307.772 5.5728C313.079 23.5098 318.09 41.5211 323.233 59.4581C325.776 68.4489 328.66 77.3951 330.801 86.4453C332.005 91.6614 334.889 94.1432 339.736 96.0751C386.982 114.829 435.27 115.052 484.181 104.471C497.1 101.678 509.797 97.7544 522.597 94.6633C527.384 93.5339 529.48 91.2156 530.551 86.475C536.438 60.6767 542.623 34.9526 548.837 9.22856C549.417 7.0886 551.275 5.24586 552.524 3.28424C553.446 3.68548 554.323 4.11644 555.259 4.54741C554.962 6.71708 554.798 8.93134 554.338 11.0564C548.614 35.5619 542.756 60.0079 537.375 84.6471C536.735 87.753 537.716 92.5085 539.842 94.7971C585.483 143.362 642.022 171.211 708.774 179.162C711.42 179.474 715.285 177.497 717.248 175.417C738.121 153.334 758.771 131.013 779.48 108.841C781.695 106.522 783.925 101.99 788.088 107.964H788.028ZM198.903 761.988C210.216 749.846 220.995 738.478 231.387 726.782C232.769 725.222 233.007 721.418 232.085 719.337C227.984 709.215 223.5 699.251 218.646 689.467C199.497 650.992 173.748 617.556 138.975 591.178C136.551 589.365 132.983 586.883 130.783 587.522C113.88 592.233 97.0801 597.672 80.013 602.962C87.8032 630.945 100.321 655.465 118.89 676.345C144.624 705.249 171.682 732.95 198.903 761.988ZM837.297 352.29C819.754 327.904 802.747 304.513 786.14 280.78C771.645 260.079 758.265 238.575 743.22 218.186C735.147 207.204 724.696 197.886 714.646 187.142C701.727 201.037 690.086 213.357 678.817 226.063C677.628 227.445 678.267 231.427 679.367 233.552C686.979 248.086 694.472 262.694 702.767 276.872C722.942 311.215 748.468 341.085 781.74 364.09C783.91 365.591 787.226 367.433 789.352 366.824C805.556 362.262 821.627 357.135 837.297 352.29ZM372.264 865.924C439.581 852.609 503.924 831.967 573.085 831.67C567.599 816.869 562.752 803.004 557.147 789.332C555.514 786.002 552.668 783.423 549.194 782.124C530.67 776.239 511.596 776.477 492.596 779.479C456.187 785.245 422.618 799.6 388.707 812.797C387.674 813.242 386.745 813.897 385.979 814.721C385.214 815.545 384.629 816.519 384.262 817.582C380.173 833.141 376.486 848.745 372.264 865.924ZM58.2778 395.461C60.2402 396.59 61.043 397.333 61.9796 397.541C77.0396 400.632 92.0105 403.738 107.145 406.458C109.107 406.8 112.081 405.328 113.657 403.798C159.357 359.513 183.01 305.449 187.782 243.078C187.901 240.834 188.184 237.684 186.92 236.421C174.685 224.041 162.122 211.989 148.326 198.555C142.097 275.817 113.894 341.531 58.2332 395.461H58.2778ZM153.485 193.592C165.779 206.075 177.42 218.038 189.373 229.748C190.696 231.071 193.818 231.531 195.84 231.16C245.168 221.768 290.973 204.722 328.749 170.899C344.612 156.707 344.552 156.633 338.903 136.898C335.712 125.751 332.501 114.611 329.269 103.476C281.324 155.251 220.37 179.667 153.485 193.532V193.592ZM135.362 579.467C153.068 573.969 169.452 569.005 185.731 563.522C187.812 562.838 189.938 559.539 190.354 557.176C192.257 546.194 194.339 535.197 194.859 524.141C196.078 497.837 187.931 472.99 182.46 447.607C178.892 431.231 172.083 422.403 154.258 421.423C142.379 420.799 130.664 417.187 118.087 414.735C119.737 470.448 138.365 523.1 135.362 579.393V579.467ZM836.331 358.621C821.285 363.228 807.786 367.731 794.05 371.446C787.835 373.11 785.278 376.201 784 382.368C773.801 431.736 779.331 480.167 790.883 528.599C793.47 539.388 798.019 544.173 809.169 545.481C821.568 546.892 833.788 550.073 845.147 552.257C839.973 519.979 833.967 488.475 830.102 456.702C826.251 424.41 829.12 392.117 836.331 358.621ZM733.482 729.784C760.138 665.17 785.174 601.476 845.043 558.38C828.198 554.977 813.213 551.722 798.093 549.032C795.744 548.601 792.221 549.909 790.318 551.574C779.257 561.203 767.587 570.373 757.879 581.176C737.749 603.616 724.428 630.232 712.728 657.561C707.183 670.371 701.875 683.285 696.271 696.63L733.482 729.784ZM117.403 408.449C136.611 412.313 154.154 415.939 171.801 419.119C173.703 419.461 176.588 417.455 178.268 415.776C213.517 380.749 232.323 338.41 236.129 289.548C236.307 287.185 236.07 283.931 234.628 282.4C221.991 269.189 209.072 256.334 196.212 243.39C195.454 243.658 194.651 243.94 193.967 244.222C188.273 307.411 164.427 362.485 117.403 408.434V408.449ZM527.518 98.9284C462.862 118.396 399.678 126.094 334.948 100.147C339.037 114.77 343.021 127.342 345.965 140.167C347.57 147.315 351.451 150.837 358.245 153.453C409.699 173.143 460.707 167.095 511.655 151.58C512.673 151.154 513.589 150.518 514.345 149.714C515.1 148.91 515.678 147.956 516.041 146.914C519.921 131.622 523.43 116.226 527.518 98.9284ZM534.148 97.6058C530.283 114.057 526.715 128.62 523.548 143.273C523.39 144.46 523.479 145.666 523.809 146.817C524.139 147.968 524.703 149.038 525.466 149.96C563.421 190.902 610.311 215.348 666.27 223.001C668.708 223.313 672.216 223.313 673.614 221.902C685.076 210.191 696.122 198.109 708.461 184.913C639.346 175.863 581.826 147.716 534.148 97.6058ZM672.216 232.69C659.817 245.961 648.147 258.266 636.908 270.868C635.807 272.131 636.298 275.712 637.25 277.644C641.457 286.293 645.902 294.794 650.57 303.279C667.533 334.19 688.585 361.875 717.783 382.829C720.191 384.568 723.759 386.901 726.034 386.262C743.458 381.358 760.644 375.83 779.896 369.856C729.097 334.472 698.114 286.145 672.216 232.69ZM197.49 236.896C206.544 245.946 214.736 254.313 223.106 262.501C239.667 278.64 239.727 278.7 262.443 272.904C298.034 263.764 330.518 248.889 356.996 223.061C360.564 219.539 361.724 216.492 360.163 211.469C356.238 199.387 353.116 187.083 349.607 174.852C348.566 171.107 347.303 167.362 345.742 162.429C304.784 205.064 253.612 225.186 197.49 236.881V236.896ZM779.079 376.231C762.621 381.284 747.918 386.128 732.962 390.274C727.119 391.924 724.488 394.658 723.209 400.632C714.438 442.748 719.522 484.106 730.732 525.047C731.341 527.44 734.999 530.07 737.764 530.754C747.457 533.176 757.358 534.796 767.23 536.757C773.816 538.021 780.328 539.343 788.103 540.844C773.533 486.171 766.591 432.598 779.079 376.186V376.231ZM785.813 546.967C783.004 546.149 781.309 545.525 779.629 545.183C766.13 542.434 752.764 539.403 739.147 537.307C735.281 536.713 730.197 537.679 726.956 539.848C711.851 549.865 699.051 562.63 690.339 578.115C676.141 603.453 663.504 629.608 650.243 655.347C664.619 668.231 677.42 679.659 691.558 692.276C714.036 637.543 735.415 583.643 785.813 546.967ZM139.703 584.044C187.069 619.681 216.951 665.764 238.181 717.569C239.444 717.197 240.084 717.227 240.366 716.9C247.755 709.128 255.084 701.266 262.399 693.435C275.095 679.674 275.095 679.644 267.305 662.465C251.263 627.111 229.454 596.022 198.1 571.992C195.647 570.105 191.663 568.114 189.18 568.812C173.228 573.27 157.469 578.487 139.703 584.044ZM513.751 157.019C459.012 173.158 405.655 178.879 350.841 156.559C356.03 174.986 360.653 191.615 365.5 208.17C365.842 209.3 367.343 210.355 368.562 210.89C410.561 228.737 453.125 226.419 495.822 213.654C497.859 213.03 500.669 211.469 501.085 209.82C505.396 192.834 509.321 175.714 513.751 157.019ZM667.102 229.168C638.32 224.502 611.783 216.997 586.896 204.321C562.217 191.689 540.868 174.733 520.754 154.211L508.176 207.695C511.343 210.667 514.331 213.208 516.977 215.913C545.373 244.579 579.611 262.472 619.796 269.248C623.364 269.828 628.686 269.887 630.678 267.866C642.884 255.695 654.406 242.826 667.102 229.168ZM578.303 828.207C593.714 808.907 612.754 792.807 634.351 780.816C657.751 767.665 681.746 755.553 705.458 742.921C712.104 739.414 718.675 735.729 726.019 731.761C714.111 721.12 703.288 711.208 692.138 701.668C690.77 700.434 687.143 700.092 685.463 700.94C660.263 714.091 634.975 727.184 610.058 740.93C592.696 750.394 577.465 763.322 565.309 778.914C563.719 781.024 562.499 784.769 563.302 787.043C567.733 800.329 572.817 813.391 578.318 828.207H578.303ZM203.229 765.852C206.455 766.416 208.194 766.788 209.919 767.026C227.744 769.388 245.629 771.231 263.365 774.203C310.522 782.094 346.292 805.322 366.139 849.25C366.6 850.246 367.581 851.123 368.86 852.787C372.264 838.996 375.609 826.201 378.493 813.347C379.073 811.013 378.493 808.145 377.69 805.842C364.756 770.265 340.241 746.577 302.167 738.433C282.32 734.198 261.953 732.296 241.823 729.517C239.92 729.249 237.155 729.636 236.055 730.825C225.217 742.045 214.661 753.532 203.229 765.807V765.852ZM61.1917 403.129C79.1953 467.164 99.3249 529.357 79.9387 596.617C96.4408 591.46 111.263 587.017 125.922 582.068C127.527 581.488 129.088 578.085 129.088 575.99C129.148 563.819 129.668 551.559 128.167 539.507C123.097 498.684 117.329 457.921 111.605 417.143C111.308 415.434 109.241 412.997 107.621 412.64C92.7538 409.4 77.7384 406.532 61.1917 403.203V403.129ZM552.39 775.912C546.473 759.967 541.032 744.942 535.145 730.096C534.416 728.224 531.279 726.292 529.109 726.069C517.26 724.969 505.381 723.067 493.681 723.825C468.289 725.43 445.215 735.833 421.28 743.204C404.956 748.256 396.244 756.697 394.505 773.505C393.405 784.294 389.658 794.845 386.834 806.615C403.618 800.388 418.797 794.369 434.259 789.049C465.821 778.216 497.77 768.928 531.919 772.673C538.4 773.356 544.778 774.679 552.39 775.912ZM559.273 776.759C592.084 735.149 641.531 720.303 684.214 694.356C671.696 683.166 659.877 672.466 647.835 661.989C646.556 660.875 643.271 660.444 641.769 661.246C618.562 673.64 594.998 685.529 572.668 699.245C562.157 705.71 553.788 715.681 544.971 724.509C543.232 726.233 542.385 730.364 543.143 732.697C547.945 746.934 553.371 760.962 559.273 776.759ZM382.448 797.981C386.194 782.585 389.777 768.11 393.182 753.576C393.524 752.165 393.018 750.471 392.498 749.014C382.983 721.343 365.723 700.583 335.959 693.048C318.878 688.754 301.171 686.851 283.628 684.37C281.205 684.058 277.741 686.094 275.779 688.055C268.732 695.07 262.072 702.485 255.352 709.797C251.427 714.062 247.621 718.446 243.057 723.528C257.924 725.46 271.259 727.109 284.535 728.952C327.976 735.03 361.842 754.379 380.069 795.32C380.367 795.9 381.065 796.361 382.448 797.981ZM244.677 290.484L242.314 291.703C237.304 341.204 218.2 384.494 181.449 421.155C197.252 424.291 211.48 427.278 225.707 429.804C227.432 430.116 230.153 428.541 231.639 427.099C259.158 399.533 273.935 366.259 277.161 327.978C277.325 325.897 276.7 323.133 275.303 321.692C265.283 311.126 254.95 300.827 244.677 290.484ZM716.653 389.383C675.799 360.122 651.343 320.756 630.292 277.778C620.064 288.701 610.668 298.509 601.748 308.659C600.618 309.982 600.9 313.504 601.807 315.406C605.762 323.594 610.029 331.663 614.474 339.629C627.452 362.782 643.33 383.632 665.14 399.666C667.37 401.331 671.012 403.159 673.331 402.52C687.291 398.701 701.058 394.227 716.653 389.383ZM284.922 320.696C297.618 333.551 309.853 346.019 322.312 358.294C323.471 359.453 326.207 359.735 328.021 359.423C346.084 356.109 363.329 350.537 378.954 340.684C393.821 331.232 393.821 331.262 389.108 314.276L386.923 306.816C383.92 296.206 380.872 285.595 377.809 274.865C345.727 289.444 311.979 298.331 284.922 320.696ZM715.523 395.892C703.526 399.592 690.383 403.441 677.449 407.855C675.353 408.583 673.42 411.719 672.826 414.052C664.634 448.246 668.559 481.921 677.791 515.298C678.172 516.331 678.788 517.26 679.591 518.013C680.393 518.767 681.36 519.323 682.415 519.638C695.973 522.625 709.621 525.196 723.358 527.945C719.909 505.624 715.003 484.091 713.724 462.364C712.416 440.653 714.765 418.673 715.523 395.892ZM724.176 534.186C715.226 532.403 708.149 532.002 701.965 529.49C682.593 521.629 669.213 529.802 657.602 543.995C654.436 547.873 650.511 551.321 648.251 555.586C637.202 577.045 626.379 598.619 615.782 620.305C615.143 621.523 615.44 624.094 616.362 624.941C626.114 633.932 636.075 642.76 647.002 652.508C665.288 608.282 682.653 564.8 724.176 534.186ZM182.638 427.382C195.275 471.429 208.313 514.02 196.018 560.208C203.452 557.993 209.458 556.255 215.405 554.353C242.923 545.704 243.666 544.426 244.202 515.417C244.603 489.322 236.59 464.846 229.543 440.177C229.142 438.676 227.7 436.566 226.376 436.283C212.298 433.237 198.159 430.503 182.638 427.382ZM279.391 675.171C289.203 664.679 298.019 655.421 306.479 645.88C307.11 645.014 307.54 644.016 307.735 642.962C307.931 641.908 307.887 640.823 307.609 639.787C294.57 606.648 275.883 577.253 246.907 555.021C245.242 553.728 242.403 552.227 240.678 552.748C227.402 556.567 214.201 560.832 199.482 565.439C237.735 594.67 261.73 631.985 279.391 675.171ZM381.095 263.527C382.656 263.155 383.875 262.576 385.02 262.68C386.521 262.798 388.082 263.319 389.524 263.913C420.67 276.664 452.114 274.643 483.676 265.681C485.713 265.102 488.522 263.512 488.939 261.877C492.566 248.19 495.673 234.37 499.331 218.855C455.132 231.487 412.315 235.068 367.953 216.611C372.725 233.835 376.828 248.443 381.095 263.527ZM506.808 214.129L496.179 259.366C499.985 262.427 503.122 264.507 505.768 267.123C527.919 289.176 554.352 303.458 585.498 309.045C587.907 309.476 591.594 309.907 592.872 308.614C603.071 298.36 612.853 287.675 623.855 275.891C577.247 268.401 539.322 248.324 506.808 214.129ZM663.43 405.878C631.11 381.655 611.738 350.165 595.132 315.51C582.272 329.345 570.542 341.917 559.645 353.657L569.665 372.278C579.016 389.546 589.929 405.715 605.792 418.034C608.111 419.818 612.214 421.378 614.741 420.665C630.441 416.311 645.947 411.243 663.43 405.878ZM285.739 330.014C284.922 330.445 284.119 330.935 283.316 331.396C278.693 369.544 263.766 403.114 235.549 431.885C253.493 435.466 269.758 438.869 286.141 441.693C288.222 442.035 291.404 439.91 293.128 438.067C310.195 420.011 319.844 398.478 323.01 374.165C323.352 371.58 323.01 367.998 321.449 366.274C309.794 353.969 297.737 342.036 285.799 330.014H285.739ZM531.725 720.259C526.938 707.166 522.835 695.396 518.167 683.865C517.29 681.725 514.138 679.272 511.893 679.154C501.382 678.455 490.321 676.36 480.39 678.752C458.863 683.879 437.975 691.443 416.879 698.131C415.318 698.651 413.296 700.122 412.895 701.534C409.268 715.444 405.922 729.443 402.161 744.586C444.546 729.145 484.761 710.807 531.725 720.259ZM667.057 410.99C651.849 415.657 638.231 420.278 624.315 423.904C617.834 425.569 615.425 429.031 614.325 434.946C610.237 457.787 612.154 480.301 617.893 502.607C618.354 504.509 620.272 507.199 621.952 507.541C638.097 511.078 654.302 514.169 671.726 517.661C662.91 482.099 658.464 447.474 667.057 410.99ZM671.785 523.739C658.048 520.96 645.709 519.326 633.89 515.804C623.141 512.579 615.544 515.833 608.572 523.219C607.115 524.72 605.494 526.102 604.126 527.663C589.408 543.608 581.559 563.195 573.724 582.766C573.203 584.059 573.605 586.601 574.571 587.477C585.84 597.865 597.243 608.045 609.538 618.997C624.375 583.064 638.454 548.23 671.785 523.739ZM246.447 544.604C261.849 539.819 275.348 535.316 289.025 531.511C294.392 530.011 296.637 527.128 297.737 522.045C301.364 504.807 297.276 488.267 294.674 471.325C291.894 453.373 283.777 443.848 264.643 443.506C257.656 443.327 250.684 440.846 243.666 439.523C241.273 439.062 238.85 438.721 235.505 438.171C245.659 473.45 255.872 507.288 246.417 544.604H246.447ZM640.149 655.02C629.846 645.761 620.019 636.756 609.924 628.136C608.795 627.126 605.42 627.527 603.77 628.404C589.691 635.537 575.077 642.016 561.935 650.576C549.773 658.497 539.084 668.647 527.964 678.054C526.403 679.376 524.797 682.438 525.318 684.043C529.406 696.362 534.089 708.504 539.025 721.997C565.785 688.13 605.36 675.884 640.149 655.02ZM313.734 638.316C324.869 626.323 335.082 615.549 345.058 604.448C346.218 603.081 346.559 600.035 345.905 598.311C336.881 574.89 323.947 554.026 303.936 537.931C302.033 536.43 298.986 534.588 297.187 535.108C281.844 539.551 266.665 544.485 250 549.731C280.343 573.612 299.491 603.363 313.734 638.316ZM395.308 739.578C395.893 739.307 396.473 739.025 397.047 738.731C398.95 731.241 400.912 723.721 402.637 716.261C403.737 711.55 406.19 706.2 404.971 701.995C398.593 680.075 386.655 661.707 363.285 654.678C348.983 650.353 333.804 648.897 318.982 646.371C317.376 646.073 314.834 646.371 313.853 647.366C304.338 657.234 295.046 667.324 284.372 678.767C332.139 682.542 375.594 690.611 395.308 739.578ZM487.155 270.927C451.772 280.825 417.875 281.909 382.344 267.925L397.404 321.32C401.894 321.528 405.477 320.86 408.361 321.944C428.728 329.702 449.259 329.122 469.969 323.906C472.228 323.327 475.112 320.874 475.692 318.779C479.662 303.502 483.051 288.106 487.095 270.927H487.155ZM587.059 315.376C552.45 308.882 524.084 294.214 500.698 270.496C496.952 266.662 494.246 267.554 493.027 272.681C489.4 288.017 485.772 303.383 482.397 317.561C486.723 320.414 490.678 322.286 493.607 325.05C508.206 338.93 525.109 348.664 544.942 353.108C547.439 353.657 551.305 353.449 552.717 351.948C564.06 340.402 574.958 328.409 587.059 315.376ZM279.822 316.832C304.174 297.335 333.358 286.962 362.036 275.549C365.722 274.135 369.258 272.358 372.591 270.244C373.974 269.382 375.386 266.841 375.074 265.518C371.61 252.307 367.745 239.214 363.641 224.74C330.533 257.761 289.739 273.587 246.417 282.638C257.493 293.991 268.405 305.122 279.822 316.832ZM602.892 621.717C590.954 611.047 579.983 600.956 568.625 591.326C567.287 590.167 563.719 590.286 561.86 591.178C553.089 595.354 544.035 599.336 536.022 604.76C526.329 611.269 517.438 619.027 508.488 626.531C506.942 627.824 505.5 630.886 506.021 632.431C510.867 646.549 516.13 660.518 521.764 675.795C543.128 648.629 574.378 638.494 602.892 621.717ZM414.917 692.187C447.683 680.298 478.666 667.042 514.197 673.15C509.113 659.433 504.028 646.906 499.881 634.11C497.933 628.062 494.484 626.279 488.418 625.982C467.62 624.941 449.081 632.669 430.378 639.772C429.055 640.278 427.494 641.675 427.212 642.878C423.123 658.824 419.199 674.814 414.917 692.187ZM319.74 640.62C358.676 643.503 392.423 651.988 408.346 692.93C412.508 675.973 416.017 661.752 419.481 647.515C419.659 646.787 419.942 645.821 419.6 645.241C414.649 636.889 410.606 627.616 404.257 620.349C391.859 606.202 373.795 605.043 356.372 603.393C355.108 603.245 353.368 604.523 352.387 605.578C342.01 616.575 331.737 627.706 319.74 640.62ZM530.581 384.984L537.285 394.331C546.057 406.562 554.59 418.956 563.615 430.978C565.042 432.851 568.848 434.753 570.84 434.173C581.469 431.469 591.832 427.947 602.119 424.722C593.467 414.854 584.696 406.205 577.619 396.352C570.453 386.485 564.982 375.473 558.857 364.862C556.478 360.657 554.01 359.676 550.443 363.599C543.738 370.881 536.943 378.148 530.581 384.984ZM612.928 511.97C602.075 509.785 593.363 507.704 584.532 506.501C581.044 506.101 577.523 506.892 574.542 508.745C557.697 520.5 550.725 538.615 543.619 556.552C543.188 557.756 543.961 560.178 545.076 561.144C552.108 567.742 559.333 574.088 567.287 581.176C578.169 555.452 588.278 530.248 612.928 511.97ZM609.389 428.779C598.849 432.033 589.676 434.426 580.905 437.799C579.387 438.476 578.025 439.457 576.902 440.681C575.779 441.906 574.92 443.348 574.378 444.918C570.23 461.324 571.509 477.79 575.597 494.077C576.058 495.831 577.455 498.461 578.823 498.773C589.453 501.255 600.172 503.246 612.006 505.669C605.821 479.766 603.294 455.231 609.389 428.779ZM331.737 373.972L329.017 375.711C325.27 401.375 314.596 423.979 296.25 443.922C307.846 446.285 317.881 448.618 328.035 450.104C330.459 450.446 334.086 448.633 335.826 446.671C346.562 434.881 353.409 420.073 355.435 404.258C355.732 402.178 355.316 399.384 354.052 397.972C346.857 389.769 339.245 381.923 331.737 373.972ZM294.704 449.688C301.736 475.412 309.407 500.066 302.896 526.875C312.767 523.828 320.944 520.975 329.314 518.835C334.859 517.423 336.866 514.273 337.625 509.087C340.167 491.848 335.201 475.754 330.414 459.615C330.013 458.114 327.694 456.39 326.028 456.004C316.216 453.834 306.419 451.991 294.704 449.688ZM352.045 597.003C359.598 588.874 366.124 581.994 372.294 575.024C373.394 573.79 374.093 571.101 373.513 569.644C366.763 552.257 357.531 536.401 342.59 524.423C341.029 523.16 338.145 522.283 336.301 522.818C326.727 525.478 317.272 528.643 306.419 532.046C328.05 549.686 341.891 571.368 352.105 597.003H352.045ZM473.061 330.371C461.257 331.53 450.463 333.714 439.848 333.254C428.892 332.763 418.098 329.509 407.142 327.77C402.295 327.012 400.095 329.954 401.225 334.338C403.915 344.548 406.963 354.698 409.223 362.559C414.991 362.871 419.317 362.351 423.064 363.51C435.286 367.255 448.281 367.711 460.736 364.833C462.773 364.372 465.464 362.173 465.999 360.27C468.631 350.596 470.712 340.699 473.061 330.4V330.371ZM330.816 365.16C339.29 373.898 347.139 382.086 355.212 390.156C355.911 390.78 357.695 390.78 358.854 390.557C373.721 387.852 388.157 383.528 400.511 374.522C402.414 373.17 404.376 369.767 403.975 367.835C401.552 357.61 398.43 347.535 395.204 336.211C376.04 352.097 354.186 359.988 330.816 365.16ZM472.942 358.74C477.789 361.593 481.386 363.792 484.999 365.918C495.331 371.966 505.56 378.148 516.07 383.959C517.78 384.91 521.527 385.222 522.582 384.196C530.417 376.469 537.85 368.34 545.834 359.825C515.803 350.195 511.402 347.832 489.013 328.721C484.687 325.021 481.059 325.08 479.543 330.653C476.778 340.58 474.8 350.7 472.942 358.74ZM561.221 584.461C553.327 577.387 546.651 571.22 539.649 565.32C538.341 564.19 535.501 563.046 534.371 563.641C520.352 571.145 504.757 576.54 494.737 589.855C493.577 591.415 491.719 593.704 492.18 595.027C495.198 604.225 498.706 613.261 502.571 623.782C518.479 604.062 540.571 596.305 561.221 584.461ZM359.538 597.924C388.276 599.945 410.65 608.624 421.726 635.359C424.952 625.491 427.316 616.084 429.576 606.633C429.813 605.682 429.917 604.448 429.457 603.69C426.691 599.247 423.629 594.982 420.923 590.539C412.732 577.164 399.292 574.192 384.871 573.181C383.607 573.092 381.809 574.103 380.842 575.143C374.197 582.068 367.685 589.157 359.538 597.924ZM494.677 620.528C491.421 611.76 488.195 604.151 485.846 596.305C484.166 590.895 481.119 588.057 475.514 589.335C463.977 591.98 452.56 595.012 441.142 598.043C439.819 598.4 438.079 599.767 437.797 600.941C434.972 611.299 432.43 621.731 429.427 633.665C451.281 625.491 471.366 618.105 494.677 620.528ZM558.768 438.215C549.417 423.86 540.363 410.039 531.413 396.204C529.005 392.459 525.719 390.928 522.359 394.123C515.223 401.197 508.622 408.746 502.928 414.884C506.273 418.688 508.845 421.229 510.882 424.142C515.506 430.681 519.653 437.636 524.559 443.952C525.868 445.631 529.703 446.835 531.814 446.255C541.225 443.862 550.457 440.742 558.768 438.215ZM570.929 503.662C559.809 501.389 550.576 499.397 541.285 497.763C539.768 497.465 537.776 498.417 536.319 499.368C524.738 507.036 519.713 519.028 514.97 531.199C514.569 532.24 515.268 534.32 516.13 535.182C522.924 541.513 529.867 547.65 537.523 554.576C545.432 535.346 553.163 517.483 570.929 503.662ZM567.301 496.752V441.945C557.073 445.051 547.35 448.009 537.717 451.115C536.735 451.412 535.516 452.809 535.516 453.76C535.338 464.772 535.115 475.843 535.516 486.87C535.576 488.415 538.772 490.733 540.824 491.254C549.759 493.408 558.887 495.043 567.301 496.752ZM345.89 512.549C376.858 504.331 380.56 509.399 372.532 473.361C372.13 471.608 371.788 469.735 370.926 468.175C370.168 466.704 368.964 464.742 367.581 464.43C357.769 462.186 347.853 460.299 338.784 458.486C341.282 477.225 343.586 494.984 345.89 512.549ZM381.199 565.676C387.428 558.974 394.297 551.618 402.429 542.85C395.798 533.22 389.272 523.353 382.344 513.842C381.021 512.059 377.676 510.157 375.936 510.588C366.421 513.069 357.13 516.264 349.235 518.746C359.969 534.499 370.406 549.775 381.199 565.676ZM463.695 370.554C447.832 373.66 433.515 373.08 419.332 368.697C417.89 368.295 412.702 372.962 413.044 374.492C415.289 384.895 418.53 395.104 421.875 406.844C426.082 400.855 429.784 400.187 435.151 402.089C439.938 403.753 445.542 403.872 450.731 403.694C452.872 403.575 456.083 401.271 456.663 399.34C459.309 390.453 461.153 381.313 463.695 370.554ZM463.635 398.403C468.898 401.063 472.823 402.817 476.451 404.942C480.955 407.632 485.103 410.886 489.771 413.279C491.362 414.126 494.826 414.037 495.926 412.937C502.988 406.012 509.544 398.701 516.546 391.255C509.143 387.822 502.467 385.37 496.506 381.729C490.47 378.103 485.267 373.14 479.483 369.068C475.038 365.977 471.173 367.047 469.79 372.263C467.337 381.521 465.419 390.884 463.635 398.403ZM341.966 452.898C346.173 453.76 351.555 454.919 356.832 455.989C375.416 459.764 378.404 458.099 384.812 440.222C385.555 438.037 386.373 435.778 386.596 433.504C386.774 431.855 386.536 429.611 385.555 428.526C378.285 420.769 370.852 413.249 364.102 406.354C356.49 422.403 349.384 437.22 341.891 452.898H341.966ZM487.898 584.267C502.453 575.009 516.234 566.271 530.581 557.102C523.786 551.053 517.081 544.946 510.109 539.18C508.949 538.199 505.842 538.021 504.623 538.838C496.55 544.099 488.775 549.657 481.044 555.318C479.885 556.166 478.666 558.439 479.008 559.584C481.832 568.054 485.029 576.465 487.898 584.267ZM363.181 397.333C370.421 404.57 377.884 412.105 385.496 419.506C386.254 420.189 387.919 420.665 388.9 420.368C396.69 418.005 404.48 415.672 412.033 412.67C413.594 412.046 415.318 408.523 414.917 406.785C412.672 397.304 409.758 387.956 407.305 379.456C392.438 385.489 377.943 391.374 363.181 397.333ZM430.393 595.16C431.092 595.071 431.716 594.982 432.356 594.863L439.685 565.26C436.741 562.689 434.719 561.471 433.5 559.777C431.538 557.087 430.393 553.699 428.252 551.187C423.406 545.451 412.152 541.988 408.643 545.391C401.775 551.96 395.486 559.138 387.874 567.311C408.301 569.332 422.945 577.179 430.393 595.16ZM480.063 581.667C477.803 575.44 475.618 568.574 472.689 562.036C471.351 559.212 468.125 554.68 466.46 554.962C459.978 556.062 450.538 557.013 448.174 561.248C443.446 569.674 442.629 580.225 440.101 590.375C453.987 587.358 466.683 584.624 480.063 581.667ZM519.817 449.941C514.554 441.663 510.064 434.114 505.099 426.787C502.081 422.225 498.007 420.472 493.458 425.064C489.132 429.507 485.044 434.233 480.94 438.721C484.107 440.801 487.556 442.064 489.295 444.487C497.948 456.658 497.769 456.806 512.384 452.363C514.851 451.575 517.319 450.743 519.817 449.941ZM507.641 527.44C514.732 516.279 521.318 505.877 528.291 494.835C521.586 493.914 512.815 489.99 507.641 492.695C501.278 495.95 496.952 504.346 493.785 511.375C492.863 513.485 498.632 518.642 501.62 522.164C503.493 524.289 505.902 525.968 507.641 527.44ZM386.373 507.051L406.904 537.783C412.033 532.255 416.879 526.964 421.666 521.852C418.039 515.818 414.976 510.112 411.111 504.911C409.788 503.068 406.264 501.404 404.124 501.805C398.088 502.949 392.2 505.238 386.373 507.051ZM383.251 501.463C385.733 500.764 388.513 499.992 391.219 499.13C405.937 494.538 406.74 493.334 402.756 478.86C401.879 475.754 399.931 471.504 397.389 470.552C391.383 468.309 384.752 467.699 378.226 466.466C379.965 478.34 381.526 489.455 383.251 501.463ZM527.652 488.519V454.295L505.084 461.101C504.965 463.865 504.965 465.886 504.742 467.907C503.092 483.66 503.032 483.66 518.88 486.944C521.705 487.494 524.545 487.969 527.652 488.519ZM453.987 410.976C446.197 409.846 439.388 408.093 432.698 408.315C429.694 408.375 424.164 412.699 424.387 414.572C425.249 421.72 428.015 428.615 429.397 433.519C435.522 432.895 439.953 432.687 444.234 431.81C446.256 431.379 449.215 430.057 449.78 428.467C451.623 422.894 452.604 417.039 453.987 410.976ZM501.813 532.165C485.267 516.829 487.675 512.014 468.244 530.977C470.548 536.951 472.957 543.058 475.335 549.24L501.813 532.165ZM488.775 420.917C482.472 416.459 477.134 411.778 470.95 408.672C468.512 407.454 462.015 408.821 461.316 410.515C458.774 417.009 457.808 424.098 456.811 428.615C463.561 431.498 468.69 433.638 474.577 436.061L488.775 420.917ZM417.058 536.089C425.487 542.523 433.158 548.334 441.811 554.947C443.595 548.111 445.557 540.859 446.88 535.658C443.417 532.373 440.711 530.59 439.09 528.108C434.645 521.243 431.538 520.723 425.874 526.652C422.663 530.07 419.422 533.518 417.058 536.089ZM394.163 435.035C389.316 444.903 385.57 452.452 381.467 460.744C388.276 462.097 394.906 463.969 401.552 464.326C403.856 464.504 407.201 461.22 408.465 458.708C409.624 456.539 409.565 452.511 408.182 450.609C404.198 445.23 399.292 440.563 394.163 435.035ZM418.039 417.41C409.55 420.516 401.938 423.31 394.267 426.178C393.643 427.189 393.003 428.229 392.305 429.269C396.006 431.81 399.976 433.935 403.202 436.878C411.795 444.814 411.616 444.947 423.971 438.84L418.039 417.41ZM467.307 547.502C465.063 541.424 463.16 536.104 461.019 530.858C460.617 529.892 459.027 528.435 458.372 528.643C457.094 529.015 455.414 530.129 455.072 531.274C453.169 537.619 451.638 544.009 449.765 551.351L467.307 547.502ZM431.478 470.315C438.406 467.209 444.398 462.825 450.924 462.008C457.57 461.235 464.646 463.999 471.53 465.173C456.752 451.887 434.719 455.157 431.478 470.315ZM489.236 459.11L490.946 456.479C486.248 452.779 481.773 448.425 476.421 445.958C474.904 445.259 470.697 450.193 467.129 453.046C471.098 454.8 474.666 455.216 475.544 456.91C479.364 464.445 484.33 460.923 489.236 459.11ZM497.71 489.976C489.176 486.751 485.608 488.281 481.104 495.801C477.015 502.637 482.174 504.717 486.307 507.868C490.277 501.686 493.964 495.831 497.71 489.976ZM433.738 508.061C431.597 504.569 430.274 499.962 427.227 497.986C424.342 496.202 419.615 497.183 413.787 496.812C417.236 501.924 419.213 504.584 420.938 507.392C426.691 516.918 426.87 516.948 433.738 508.061ZM411.527 492.398C416.656 490.704 422.767 491.551 421.964 483.481C421.22 475.442 417.058 472.44 408.866 473.257C409.728 479.424 410.591 485.428 411.527 492.398ZM486.01 466.852C488.24 481.683 488.24 481.683 498.409 481.208C497.651 475.784 496.952 470.419 496.253 465.069C492.804 465.678 489.355 466.287 486.01 466.852ZM448.397 440.682C447.356 439.389 446.316 438.096 445.23 436.848C441.365 438.542 435.998 439.3 434.095 442.213C432.43 444.843 434.496 449.822 434.957 453.775C435.998 454.012 437.098 454.235 438.124 454.443C441.588 449.851 444.992 445.23 448.397 440.682ZM461.569 513.396C463.264 516.458 464.706 519.236 466.386 522.224L479.706 513.01C473.522 501.745 467.947 508.804 461.569 513.396ZM451.222 448.35L454.002 451.07C459.012 448.529 464.096 446.002 469.106 443.432C468.868 442.168 468.586 440.92 468.363 439.657C464.602 439.137 459.993 437.071 457.406 438.498C454.388 440.162 453.169 444.918 451.222 448.35ZM452.247 515.7C448.01 513.916 444.814 512.534 440.889 510.87L435.864 516.457C440.131 519.519 443.833 522.105 447.46 524.705C449.2 521.48 450.88 518.271 452.247 515.7ZM428.49 458.902L426.305 445.408C422.841 446.909 420.418 447.919 416.909 449.42C420.819 452.616 423.525 454.859 428.49 458.902ZM423.926 468.873L424.967 466.451C422.321 463.761 419.659 461.056 416.433 457.713C414.768 461.339 413.668 463.791 412.226 466.852L423.926 468.873Z" fill="white"/>
</svg>
