<svg width="58" height="48" viewBox="0 0 58 48" fill="none" xmlns="http://www.w3.org/2000/svg">
<path d="M52.6918 0.423793C52.6918 0.423793 58.0198 -1.65391 57.5741 3.39155C57.4274 5.46926 56.0957 12.7419 55.0589 20.607L51.5069 43.9075C51.5069 43.9075 51.2107 47.321 48.546 47.9148C45.8827 48.5072 41.8864 45.8371 41.1458 45.2433C40.5534 44.7975 30.0455 38.1187 26.3454 34.8547C25.3086 33.9633 24.1237 32.1832 26.4935 30.1055L42.0331 15.264C43.8091 13.4839 45.5851 9.32844 38.1849 14.3739L17.4627 28.4721C17.4627 28.4721 15.0943 29.9574 10.655 28.6216L1.03308 25.6525C1.03308 25.6525 -2.5189 23.4267 3.54965 21.2008C18.3514 14.2258 36.557 7.10262 52.6891 0.423793H52.6918Z" fill="white"/>
</svg>
