<svg width="59" height="48" viewBox="0 0 59 48" fill="none" xmlns="http://www.w3.org/2000/svg">
<path d="M59 5.69368C56.8303 6.65583 54.4995 7.30594 52.0492 7.59979C54.5775 6.0858 56.469 3.70296 57.3708 0.895894C54.9954 2.3079 52.3957 3.30179 49.6846 3.83437C47.8615 1.8863 45.4467 0.595093 42.8152 0.161207C40.1837 -0.27268 37.4826 0.175034 35.1314 1.43484C32.7802 2.69464 30.9104 4.69605 29.8122 7.12834C28.7141 9.56063 28.449 12.2877 29.0583 14.8862C24.2452 14.6443 19.5366 13.3924 15.2383 11.2115C10.94 9.0307 7.14787 5.96974 4.10812 2.22731C3.06875 4.0216 2.47111 6.10194 2.47111 8.3175C2.46995 10.312 2.96074 12.276 3.89993 14.0351C4.83912 15.7943 6.19768 17.2943 7.85506 18.402C5.93294 18.3407 4.05322 17.821 2.37237 16.8859V17.0419C2.37217 19.8393 3.33907 22.5506 5.10899 24.7158C6.87892 26.8809 9.34285 28.3666 12.0827 28.9207C10.2996 29.4036 8.43019 29.4747 6.61561 29.1287C7.38864 31.5357 8.89442 33.6405 10.9222 35.1485C12.9499 36.6565 15.3981 37.4921 17.924 37.5385C13.6361 40.9071 8.34067 42.7344 2.88946 42.7263C1.92383 42.7266 0.95902 42.6701 0 42.5573C5.5333 46.1177 11.9745 48.0073 18.5528 48C40.8214 48 52.995 29.5422 52.995 13.534C52.995 13.0139 52.982 12.4886 52.9586 11.9685C55.3266 10.2548 57.3706 8.1326 58.9948 5.70148L59 5.69368Z" fill="white"/>
</svg>
